# xmcd
#
# Track frame offsets: 
#        183
#        26920
#        50820
#        81720
#        105933
#        142195
#        178558
#        229383
#        260470
#        290870
#
# Disc length: 4226 seconds
#
# Revision: 1
# Processed by: cddbd v1.5.1PL0 Copyright (c) Steve Scherf et al.
# Submitted via: ExactAudioCopy v0.95a5
#
DISCID=9e10800a
DTITLE=Grateful Dead - 1993-03-24 Here Comes Sunshine [CD1]
DYEAR=1993
DGENRE=Rock
TTITLE0=Jack Straw
TTITLE1=Stagger Lee
TTITLE2=Wang Dang Doodle
TTITLE3=It Must Have Been The Roses
TTITLE4=Memphis Blues
TTITLE5=Tennesee Jed
TTITLE6=Let It Grow
TTITLE7=Here Comes Sunshine
TTITLE8=Playing In The Band
TTITLE9=Box of Rain
EXTD=import CD of Chapel Hill Dead Show (KTS Italy)
EXTT0=
EXTT1=
EXTT2=
EXTT3=
EXTT4=
EXTT5=
EXTT6=End of 1st Set
EXTT7=First song of 2nd Set
EXTT8=
EXTT9=
PLAYORDER=
